REM DIRINDEX 1\2\5,1\2\6,1\2\7,1\2\8,1\3\9,1\3\10,1\3\11,1\4\12,1\4\13,1\4\14,1\4\15,1\4\16
REM DIRNAME folder01,folder02,folder03,folder04,folder05,folder06,folder07,folder08,folder09,folder10,folder11,folder12,folder13,folder14,folder15,folder16
TITLE ""
FILE "1200_2_sec02_0477_0491.mp3" MP3
  TRACK 01 AUDIO
    TITLE "0:"
    INDEX 01 00:00:00
  TRACK 02 AUDIO
    TITLE "10:cjc034_00976"
    INDEX 01 00:00:15
  TRACK 03 AUDIO
    TITLE "0:"
    INDEX 01 00:01:40
  TRACK 04 AUDIO
    TITLE "9:cjc034_00977"
    INDEX 01 00:01:50
  TRACK 05 AUDIO
    TITLE "0:"
    INDEX 01 00:02:57
  TRACK 06 AUDIO
    TITLE "10:cjc034_00978"
    INDEX 01 00:03:37
  TRACK 07 AUDIO
    TITLE "0:"
    INDEX 01 00:04:52
  TRACK 08 AUDIO
    TITLE "9:cjc034_00979"
    INDEX 01 00:04:58
  TRACK 09 AUDIO
    TITLE "0:"
    INDEX 01 00:06:06
  TRACK 10 AUDIO
    TITLE "10:cjc034_00980"
    INDEX 01 00:06:61
  TRACK 11 AUDIO
    TITLE "0:"
    INDEX 01 00:08:09
  TRACK 12 AUDIO
    TITLE "9:cjc034_00981"
    INDEX 01 00:08:13
  TRACK 13 AUDIO
    TITLE "0:"
    INDEX 01 00:09:28
  TRACK 14 AUDIO
    TITLE "10:cjc034_00982"
    INDEX 01 00:10:10
  TRACK 15 AUDIO
    TITLE "0:"
    INDEX 01 00:11:25
  TRACK 16 AUDIO
    TITLE "9:cjc034_00983"
    INDEX 01 00:11:31
  TRACK 17 AUDIO
    TITLE "0:"
    INDEX 01 00:12:50
  TRACK 18 AUDIO
    TITLE "10:cjc034_00984"
    INDEX 01 00:13:30
  TRACK 19 AUDIO
    TITLE "0:"
    INDEX 01 00:14:39
  TRACK 20 AUDIO
    TITLE "9:cjc034_00985"
    INDEX 01 00:14:45
  TRACK 21 AUDIO
    TITLE "0:"
    INDEX 01 00:15:44
  TRACK 22 AUDIO
    TITLE "10:cjc034_00986"
    INDEX 01 00:16:26
  TRACK 23 AUDIO
    TITLE "0:"
    INDEX 01 00:17:55
  TRACK 24 AUDIO
    TITLE "9:cjc034_00987"
    INDEX 01 00:17:59
  TRACK 25 AUDIO
    TITLE "0:"
    INDEX 01 00:18:70
  TRACK 26 AUDIO
    TITLE "10:cjc034_00988"
    INDEX 01 00:19:54
  TRACK 27 AUDIO
    TITLE "0:"
    INDEX 01 00:21:04
  TRACK 28 AUDIO
    TITLE "9:cjc034_00989"
    INDEX 01 00:21:08
  TRACK 29 AUDIO
    TITLE "0:"
    INDEX 01 00:22:13
  TRACK 30 AUDIO
    TITLE "10:cjc034_00990"
    INDEX 01 00:22:66
  TRACK 31 AUDIO
    TITLE "0:"
    INDEX 01 00:24:22
  TRACK 32 AUDIO
    TITLE "9:cjc034_00991"
    INDEX 01 00:24:31
  TRACK 33 AUDIO
    TITLE "0:"
    INDEX 01 00:25:54
  TRACK 34 AUDIO
    TITLE "10:cjc034_00992"
    INDEX 01 00:26:38
  TRACK 35 AUDIO
    TITLE "0:"
    INDEX 01 00:28:66
  TRACK 36 AUDIO
    TITLE "9:cjc034_00993"
    INDEX 01 00:28:72
  TRACK 37 AUDIO
    TITLE "0:"
    INDEX 01 00:29:74
  TRACK 38 AUDIO
    TITLE "10:cjc034_00994"
    INDEX 01 00:30:61
  TRACK 39 AUDIO
    TITLE "0:"
    INDEX 01 00:31:49
  TRACK 40 AUDIO
    TITLE "9:cjc034_00995"
    INDEX 01 00:31:51
  TRACK 41 AUDIO
    TITLE "0:"
    INDEX 01 00:32:58
  TRACK 42 AUDIO
    TITLE "10:cjc034_00996"
    INDEX 01 00:33:40
  TRACK 43 AUDIO
    TITLE "0:"
    INDEX 01 00:36:03
  TRACK 44 AUDIO
    TITLE "9:cjc034_00997"
    INDEX 01 00:36:05
  TRACK 45 AUDIO
    TITLE "0:"
    INDEX 01 00:37:10
  TRACK 46 AUDIO
    TITLE "10:cjc034_00998"
    INDEX 01 00:37:71
  TRACK 47 AUDIO
    TITLE "0:"
    INDEX 01 00:40:68
  TRACK 48 AUDIO
    TITLE "9:cjc034_00999"
    INDEX 01 00:40:73
  TRACK 49 AUDIO
    TITLE "0:"
    INDEX 01 00:42:04
  TRACK 50 AUDIO
    TITLE "10:cjc034_01000"
    INDEX 01 00:42:63
  TRACK 51 AUDIO
    TITLE "0:"
    INDEX 01 00:43:70
  TRACK 52 AUDIO
    TITLE "9:cjc034_01001"
    INDEX 01 00:43:74
  TRACK 53 AUDIO
    TITLE "0:"
    INDEX 01 00:44:73
  TRACK 54 AUDIO
    TITLE "10:cjc034_01002"
    INDEX 01 00:45:55
  TRACK 55 AUDIO
    TITLE "0:"
    INDEX 01 00:47:36
  TRACK 56 AUDIO
    TITLE "9:cjc034_01003"
    INDEX 01 00:47:40
  TRACK 57 AUDIO
    TITLE "0:"
    INDEX 01 00:48:49
  TRACK 58 AUDIO
    TITLE "10:cjc034_01004"
    INDEX 01 00:49:31
  TRACK 59 AUDIO
    TITLE "0:"
    INDEX 01 00:50:52
  TRACK 60 AUDIO
    TITLE "9:cjc034_01005"
    INDEX 01 00:50:56
  TRACK 61 AUDIO
    TITLE "0:"
    INDEX 01 00:51:58
